# This file uses centimeters as units for non-parametric coordinates.

mtllib archway.mtl
g default
v 6.349348 2.832153 -4.247392
v 6.349348 5.387076 -3.613047
v -6.349348 5.387076 -3.613047
v -6.349348 2.832153 -4.247392
v 6.349348 7.414675 -2.625033
v -6.349348 7.414675 -2.625033
v 6.349348 -0.000000 4.465970
v 6.349348 -0.711991 4.411020
v -6.349348 -0.711991 4.411020
v -6.349348 -0.000000 4.465970
v 6.349348 -0.711991 6.349348
v -6.349348 -0.711991 6.349348
v 6.349348 2.832152 4.247390
v -6.349348 2.832152 4.247390
v 6.349348 8.716473 -1.380061
v -6.349348 8.716473 -1.380061
v 6.349348 5.387073 3.613046
v -6.349348 5.387073 3.613046
v 6.349348 9.165036 0.000000
v -6.349348 9.165036 0.000000
v 6.349348 7.414670 2.625031
v -6.349348 7.414670 2.625031
v 6.349348 8.716468 1.380061
v -6.349348 8.716468 1.380061
v 6.349348 11.986706 6.349348
v -6.349348 11.986706 6.349348
v 6.349348 11.986706 -6.349348
v -6.349348 11.986706 -6.349348
v 6.349348 0.000000 -4.465971
v 6.349348 -0.711991 -4.411021
v 6.349348 -0.711991 -6.349348
v -6.349348 -0.711991 -6.349348
v -6.349348 0.000000 -4.465971
v -6.349348 -0.711991 -4.411021
vt 0.412500 0.369569
vt 0.400000 0.369569
vt 0.400000 0.615981
vt 0.412500 0.615981
vt 0.387500 0.369569
vt 0.387500 0.615981
vt 0.550000 0.369569
vt 0.546857 0.369569
vt 0.546857 0.615981
vt 0.550000 0.615981
vt 0.625000 0.961840
vt 0.625000 1.000000
vt 0.375000 1.000000
vt 0.375000 0.961840
vt 0.562500 0.369569
vt 0.562500 0.615981
vt 0.375000 0.369569
vt 0.375000 0.615981
vt 0.575000 0.369569
vt 0.575000 0.615981
vt 0.625000 0.369569
vt 0.612500 0.369569
vt 0.612500 0.615981
vt 0.625000 0.615981
vt 0.587500 0.369569
vt 0.587500 0.615981
vt 0.600000 0.369569
vt 0.600000 0.615981
vt 0.375000 0.000000
vt 0.625000 0.000000
vt 0.625000 0.250000
vt 0.375000 0.250000
vt 0.625000 0.500000
vt 0.375000 0.500000
vt 0.663160 0.000000
vt 0.662078 0.014017
vt 0.666381 0.069774
vt 0.678870 0.120073
vt 0.698321 0.159990
vt 0.722831 0.185619
vt 0.750000 0.194450
vt 0.777169 0.185619
vt 0.801679 0.159990
vt 0.821130 0.120073
vt 0.833619 0.069774
vt 0.837922 0.014017
vt 0.836840 0.000000
vt 0.875000 0.000000
vt 0.875000 0.250000
vt 0.625000 0.750000
vt 0.375000 0.750000
vt 0.425000 0.369569
vt 0.425000 0.615981
vt 0.428142 0.615981
vt 0.428142 0.369569
vt 0.625000 0.788160
vt 0.375000 0.788160
vt 0.125000 0.000000
vt 0.163160 0.000000
vt 0.162078 0.014017
vt 0.166381 0.069774
vt 0.178870 0.120073
vt 0.198321 0.159990
vt 0.222831 0.185619
vt 0.250000 0.194450
vt 0.277169 0.185619
vt 0.301679 0.159990
vt 0.321130 0.120073
vt 0.333619 0.069774
vt 0.337922 0.014017
vt 0.336840 0.000000
vt 0.125000 0.250000
vn 0.000000 -0.156380 0.987697
vn 0.000000 -0.333734 0.942667
vn 0.000000 -0.333734 0.942667
vn 0.000000 -0.156380 0.987697
vn 0.000000 -0.557010 0.830506
vn 0.000000 -0.557010 0.830506
vn 0.000000 -0.046120 -0.998936
vn 0.000000 0.076949 -0.997035
vn 0.000000 0.076949 -0.997035
vn 0.000000 -0.046120 -0.998936
vn 0.000000 -1.000000 0.000000
vn 0.000000 -1.000000 0.000000
vn 0.000000 -1.000000 0.000000
vn 0.000000 -1.000000 0.000000
vn 0.000000 -0.156380 -0.987697
vn 0.000000 -0.156380 -0.987697
vn 0.000000 -0.832001 0.554775
vn 0.000000 -0.832001 0.554775
vn 0.000000 -0.333734 -0.942667
vn 0.000000 -0.333734 -0.942667
vn 0.000000 -0.951025 0.309113
vn 0.000000 -0.951025 0.309113
vn 0.000000 -0.557010 -0.830506
vn 0.000000 -0.557010 -0.830506
vn 0.000000 -0.951024 -0.309117
vn 0.000000 -0.832000 -0.554776
vn 0.000000 -0.832000 -0.554776
vn 0.000000 -0.951024 -0.309117
vn 0.000000 0.000000 1.000000
vn 0.000000 0.000000 1.000000
vn 0.000000 0.000000 1.000000
vn 0.000000 0.000000 1.000000
vn 0.000000 1.000000 0.000000
vn 0.000000 1.000000 0.000000
vn 0.000000 1.000000 0.000000
vn 0.000000 1.000000 0.000000
vn 1.000000 0.000000 0.000000
vn 1.000000 0.000000 0.000000
vn 1.000000 0.000000 0.000000
vn 1.000000 0.000000 0.000000
vn 1.000000 0.000000 0.000000
vn 1.000000 0.000000 0.000000
vn 1.000000 -0.000000 0.000000
vn 1.000000 0.000000 0.000000
vn 1.000000 -0.000000 0.000000
vn 1.000000 0.000001 0.000000
vn 1.000000 0.000000 0.000000
vn 1.000000 -0.000000 0.000000
vn 1.000000 -0.000000 0.000000
vn 1.000000 -0.000000 0.000000
vn 1.000000 -0.000000 0.000000
vn 1.000000 0.000000 0.000000
vn 1.000000 -0.000000 0.000000
vn 0.000000 0.000000 -1.000000
vn 0.000000 0.000000 -1.000000
vn 0.000000 0.000000 -1.000000
vn 0.000000 0.000000 -1.000000
vn 0.000000 -0.046120 0.998936
vn 0.000000 -0.046120 0.998936
vn 0.000000 0.076949 0.997035
vn 0.000000 0.076949 0.997035
vn 0.000000 -1.000000 0.000000
vn 0.000000 -1.000000 0.000000
vn 0.000000 -1.000000 0.000000
vn 0.000000 -1.000000 0.000000
vn -1.000000 0.000000 0.000000
vn -1.000000 0.000000 0.000000
vn -1.000000 0.000000 0.000000
vn -1.000000 -0.000000 0.000000
vn -1.000000 0.000000 0.000000
vn -1.000000 -0.000000 0.000000
vn -1.000000 -0.000000 0.000000
vn -1.000000 -0.000000 0.000000
vn -1.000000 0.000000 0.000000
vn -1.000000 0.000000 0.000000
vn -1.000000 0.000000 0.000000
vn -1.000000 0.000000 0.000000
vn -1.000000 -0.000000 0.000000
vn -1.000000 -0.000000 0.000000
vn -1.000000 -0.000000 0.000000
vn -1.000000 -0.000000 0.000000
vn -1.000000 0.000000 0.000000
s 1
g polySurface1
usemtl initialShadingGroup
f 1/1/1 2/2/2 3/3/3 4/4/4
f 2/2/2 5/5/5 6/6/6 3/3/3
s 2
f 7/7/7 8/8/8 9/9/9 10/10/10
s off
f 8/11/11 11/12/12 12/13/13 9/14/14
s 2
f 13/15/15 7/7/7 10/10/10 14/16/16
s 1
f 5/5/5 15/17/17 16/18/18 6/6/6
s 2
f 17/19/19 13/15/15 14/16/16 18/20/20
s 1
f 15/21/17 19/22/21 20/23/22 16/24/18
s 2
f 21/25/23 17/19/19 18/20/20 22/26/24
f 19/22/25 23/27/26 24/28/27 20/23/28
f 23/27/26 21/25/23 22/26/24 24/28/27
s off
f 12/29/29 11/30/30 25/31/31 26/32/32
s 3
f 26/32/33 25/31/34 28/34/35
f 28/34/35 25/31/34 27/33/36
s 4
f 8/35/37 7/36/38 11/30/39
f 11/30/39 7/36/38 25/31/40
f 7/36/38 13/37/41 25/31/40
f 13/37/41 17/38/42 25/31/40
f 17/38/42 21/39/43 25/31/40
f 21/39/43 23/40/44 25/31/40
f 25/31/40 23/40/44 27/49/45
f 23/40/44 19/41/46 27/49/45
f 19/41/46 15/42/47 27/49/45
f 15/42/47 5/43/48 27/49/45
f 30/47/49 31/48/50 29/46/51
f 31/48/50 27/49/45 29/46/51
f 29/46/51 27/49/45 1/45/52
f 1/45/52 27/49/45 2/44/53
f 5/43/48 2/44/53 27/49/45
s off
f 28/34/54 27/33/55 31/50/56 32/51/57
s 1
f 29/52/58 1/1/1 4/4/4 33/53/59
f 33/53/59 34/54/60 30/55/61 29/52/58
s off
f 32/51/62 31/50/63 30/56/64 34/57/65
s 6
f 34/59/66 33/60/67 32/58/68
f 32/58/68 33/60/67 28/72/69
f 33/60/67 4/61/70 28/72/69
f 4/61/70 3/62/71 28/72/69
f 3/62/71 6/63/72 28/72/69
f 6/63/72 16/64/73 28/72/69
f 28/72/69 16/64/73 26/32/74
f 16/64/73 20/65/75 26/32/74
f 20/65/75 24/66/76 26/32/74
f 24/66/76 22/67/77 26/32/74
f 9/71/78 12/29/79 10/70/80
f 12/29/79 26/32/74 10/70/80
f 10/70/80 26/32/74 14/69/81
f 14/69/81 26/32/74 18/68/82
f 22/67/77 18/68/82 26/32/74
