# This file uses centimeters as units for non-parametric coordinates.

mtllib Building1.mtl
g default
v -0.439830 -0.063502 0.696367
v 9.519411 -0.063502 0.696367
v -0.439830 3.431166 0.696367
v 9.519411 3.431166 0.696367
v -0.439830 3.431166 -0.696367
v 9.519411 3.431166 -0.696367
v -0.439830 -0.063502 -0.696367
v 9.519411 -0.063502 -0.696367
v 2.445313 -0.082128 -2.445313
v 0.000000 -0.082128 -3.458194
v -2.445313 -0.082128 -2.445313
v -3.458194 -0.082128 0.000000
v -2.445313 -0.082128 2.445313
v 0.000000 -0.082128 3.458194
v 2.445313 -0.082128 2.445313
v 3.458195 -0.082128 0.000000
v 2.445313 4.692104 -2.445313
v 0.000000 4.692104 -3.458194
v -2.445313 4.692104 -2.445313
v -3.458194 4.692104 0.000000
v -2.445313 4.692104 2.445313
v 0.000000 4.692104 3.458194
v 2.445313 4.692104 2.445313
v 3.458195 4.692104 0.000000
v 0.000000 -0.082128 0.000000
v 0.000000 4.692104 0.000000
v 2.791552 4.590191 -1.016041
v 2.275694 4.590191 -1.909533
v 1.485354 4.590191 -2.572707
v 0.515859 4.590191 -2.925575
v -0.515857 4.590191 -2.925575
v -1.485353 4.590191 -2.572708
v -2.275693 4.590191 -1.909534
v -2.791551 4.590191 -1.016042
v -2.970707 4.590191 -0.000001
v -2.791552 4.590191 1.016041
v -2.275694 4.590191 1.909533
v -1.485354 4.590191 2.572707
v -0.515858 4.590191 2.925575
v 0.515858 4.590191 2.925575
v 1.485353 4.590191 2.572708
v 2.275693 4.590191 1.909534
v 2.791551 4.590191 1.016042
v 2.970707 4.590191 0.000000
v 2.654923 5.508190 -0.966312
v 2.164314 5.508190 -1.816074
v 1.412656 5.508190 -2.446790
v 0.490611 5.508190 -2.782387
v -0.490609 5.508190 -2.782387
v -1.412654 5.508190 -2.446791
v -2.164313 5.508190 -1.816075
v -2.654923 5.508190 -0.966314
v -2.825310 5.508190 -0.000001
v -2.654923 5.508190 0.966312
v -2.164314 5.508190 1.816074
v -1.412655 5.508190 2.446790
v -0.490610 5.508190 2.782387
v 0.490610 5.508190 2.782387
v 1.412655 5.508190 2.446790
v 2.164313 5.508190 1.816075
v 2.654923 5.508190 0.966313
v 2.825310 5.508190 0.000000
v 2.258413 6.336329 -0.821994
v 1.841075 6.336329 -1.544845
v 1.201677 6.336329 -2.081364
v 0.417339 6.336329 -2.366840
v -0.417337 6.336329 -2.366840
v -1.201676 6.336329 -2.081364
v -1.841074 6.336329 -1.544845
v -2.258412 6.336329 -0.821995
v -2.403352 6.336329 -0.000001
v -2.258413 6.336329 0.821994
v -1.841075 6.336329 1.544845
v -1.201676 6.336329 2.081364
v -0.417338 6.336329 2.366840
v 0.417338 6.336329 2.366840
v 1.201676 6.336329 2.081364
v 1.841075 6.336329 1.544845
v 2.258413 6.336329 0.821995
v 2.403352 6.336329 0.000000
v 1.640833 6.993544 -0.597214
v 1.337619 6.993544 -1.122395
v 0.873069 6.993544 -1.512199
v 0.303214 6.993544 -1.719610
v -0.303213 6.993544 -1.719610
v -0.873068 6.993544 -1.512200
v -1.337619 6.993544 -1.122396
v -1.640833 6.993544 -0.597215
v -1.746137 6.993544 -0.000000
v -1.640833 6.993544 0.597214
v -1.337619 6.993544 1.122395
v -0.873069 6.993544 1.512199
v -0.303214 6.993544 1.719610
v 0.303213 6.993544 1.719610
v 0.873069 6.993544 1.512200
v 1.337619 6.993544 1.122396
v 1.640833 6.993544 0.597214
v 1.746138 6.993544 0.000000
v 0.862637 7.415502 -0.313974
v 0.703228 7.415502 -0.590078
v 0.459000 7.415502 -0.795010
v 0.159409 7.415502 -0.904052
v -0.159409 7.415502 -0.904053
v -0.458999 7.415502 -0.795011
v -0.703228 7.415502 -0.590078
v -0.862637 7.415502 -0.313974
v -0.917999 7.415502 -0.000000
v -0.862637 7.415502 0.313974
v -0.703228 7.415502 0.590078
v -0.459000 7.415502 0.795010
v -0.159409 7.415502 0.904052
v 0.159409 7.415502 0.904053
v 0.458999 7.415502 0.795011
v 0.703228 7.415502 0.590078
v 0.862637 7.415502 0.313974
v 0.917999 7.415502 0.000000
v 0.000000 7.560898 0.000000
vt 0.059412 0.229269
vt 0.397906 0.237105
vt 0.328111 0.235489
vt 0.129207 0.230885
vt 0.327467 0.263305
vt 0.322862 0.462209
vt 0.397262 0.264920
vt 0.596166 0.269525
vt 0.966498 0.154685
vt 0.965870 0.083114
vt 0.491201 0.087285
vt 0.491830 0.158855
vt 0.914817 0.032951
vt 0.541364 0.036232
vt 0.843247 0.033580
vt 0.612934 0.035603
vt 0.793084 0.084632
vt 0.663987 0.085767
vt 0.793713 0.156203
vt 0.664616 0.157337
vt 0.844765 0.206366
vt 0.614452 0.208389
vt 0.916335 0.205737
vt 0.542882 0.209018
vt 0.879791 0.119659
vt 0.577908 0.122311
vt 0.313630 0.480725
vt 0.387493 0.489710
vt 0.375402 0.540445
vt 0.316052 0.532828
vt 0.455929 0.519050
vt 0.430294 0.564494
vt 0.513377 0.566224
vt 0.476262 0.602965
vt 0.555409 0.627143
vt 0.509717 0.652618
vt 0.579219 0.696607
vt 0.528323 0.709351
vt 0.583977 0.768939
vt 0.531241 0.768702
vt 0.571051 0.838711
vt 0.519243 0.826461
vt 0.544224 0.901606
vt 0.494704 0.879441
vt 0.510244 0.955623
vt 0.169081 0.926812
vt 0.091038 0.899062
vt 0.140136 0.878282
vt 0.066950 0.838514
vt 0.118247 0.825804
vt 0.054744 0.771742
vt 0.107318 0.769533
vt 0.058390 0.701990
vt 0.109943 0.711777
vt 0.079845 0.633987
vt 0.127302 0.656124
vt 0.119019 0.573098
vt 0.159064 0.606714
vt 0.173826 0.524554
vt 0.203394 0.567602
vt 0.240423 0.492758
vt 0.257121 0.542197
vt 0.363226 0.590039
vt 0.317987 0.583881
vt 0.404959 0.608842
vt 0.439760 0.638763
vt 0.464846 0.677356
vt 0.478330 0.721533
vt 0.479382 0.767919
vt 0.468251 0.813272
vt 0.446135 0.854895
vt 0.217001 0.894244
vt 0.188977 0.855484
vt 0.169098 0.813023
vt 0.159146 0.767915
vt 0.160460 0.722191
vt 0.173539 0.678615
vt 0.197859 0.640280
vt 0.231843 0.610181
vt 0.272970 0.590817
vt 0.350332 0.639414
vt 0.319198 0.634937
vt 0.378955 0.652730
vt 0.402678 0.673820
vt 0.419526 0.700998
vt 0.428101 0.732110
vt 0.427673 0.764743
vt 0.418175 0.796413
vt 0.400086 0.824661
vt 0.260337 0.852389
vt 0.236168 0.827128
vt 0.219461 0.797341
vt 0.210875 0.765056
vt 0.210900 0.732313
vt 0.219558 0.701289
vt 0.236250 0.674199
vt 0.259727 0.653089
vt 0.288143 0.639633
vt 0.336132 0.689515
vt 0.319573 0.687062
vt 0.351292 0.696779
vt 0.363747 0.708261
vt 0.372393 0.723019
vt 0.376422 0.739824
vt 0.375372 0.757228
vt 0.369153 0.773645
vt 0.358055 0.787379
vt 0.295014 0.801415
vt 0.279970 0.790536
vt 0.269235 0.775638
vt 0.263356 0.758450
vt 0.262558 0.740572
vt 0.266733 0.723496
vt 0.275435 0.708577
vt 0.287886 0.696982
vt 0.303025 0.689618
vt 0.319566 0.743619
vt 0.342756 0.796645
vt 0.374205 0.846860
vt 0.414822 0.890844
vt 0.461671 0.926750
vt 0.120720 0.952674
vt 0.665873 0.300477
vt 0.666502 0.372047
vt 0.665244 0.228907
vt 0.668388 0.586758
vt 0.667759 0.515188
vt 0.667131 0.443618
vt 0.794970 0.299343
vt 0.795599 0.370913
vt 0.794342 0.227773
vt 0.797485 0.585624
vt 0.796856 0.514054
vt 0.796228 0.442483
vt 0.798114 0.657194
vt 0.669017 0.658328
vt 0.392657 0.463824
vt 0.058768 0.257084
vt 0.402510 0.038201
vt 0.596809 0.241710
vt 0.128563 0.258700
vt 0.332715 0.036585
vn 0.000000 0.000000 1.000000
vn 0.000000 0.000000 1.000000
vn 0.000000 0.000000 1.000000
vn 0.000000 0.000000 1.000000
vn 0.000000 1.000000 0.000000
vn 0.000000 1.000000 0.000000
vn 0.000000 1.000000 0.000000
vn 0.000000 1.000000 0.000000
vn 0.000000 0.000000 -1.000000
vn 0.000000 0.000000 -1.000000
vn 0.000000 0.000000 -1.000000
vn 0.000000 0.000000 -1.000000
vn 0.000000 -1.000000 0.000000
vn 0.000000 -1.000000 0.000000
vn 0.000000 -1.000000 0.000000
vn 0.000000 -1.000000 0.000000
vn 1.000000 0.000000 0.000000
vn 1.000000 0.000000 0.000000
vn 1.000000 0.000000 0.000000
vn 1.000000 0.000000 0.000000
vn -1.000000 0.000000 0.000000
vn -1.000000 0.000000 0.000000
vn -1.000000 0.000000 0.000000
vn -1.000000 0.000000 0.000000
vn 0.382683 0.000000 -0.923880
vn 0.382683 0.000000 -0.923880
vn 0.382683 0.000000 -0.923880
vn 0.382683 0.000000 -0.923880
vn -0.382683 0.000000 -0.923880
vn -0.382683 0.000000 -0.923880
vn -0.382683 0.000000 -0.923880
vn -0.382683 0.000000 -0.923880
vn -0.923880 0.000000 -0.382683
vn -0.923880 0.000000 -0.382683
vn -0.923880 0.000000 -0.382683
vn -0.923880 0.000000 -0.382683
vn -0.923880 0.000000 0.382683
vn -0.923880 0.000000 0.382683
vn -0.923880 0.000000 0.382683
vn -0.923880 0.000000 0.382683
vn -0.382683 0.000000 0.923880
vn -0.382683 0.000000 0.923880
vn -0.382683 0.000000 0.923880
vn -0.382683 0.000000 0.923880
vn 0.382683 0.000000 0.923880
vn 0.382683 0.000000 0.923880
vn 0.382683 0.000000 0.923880
vn 0.382683 0.000000 0.923880
vn 0.923880 0.000000 0.382683
vn 0.923880 0.000000 0.382683
vn 0.923880 0.000000 0.382683
vn 0.923880 0.000000 0.382683
vn 0.923880 0.000000 -0.382684
vn 0.923880 0.000000 -0.382684
vn 0.923880 0.000000 -0.382684
vn 0.923880 0.000000 -0.382684
vn 0.000000 -1.000000 0.000000
vn 0.000000 -1.000000 0.000000
vn 0.000000 -1.000000 0.000000
vn 0.000000 -1.000000 0.000000
vn 0.000000 -1.000000 0.000000
vn 0.000000 -1.000000 0.000000
vn 0.000000 -1.000000 0.000000
vn 0.000000 -1.000000 0.000000
vn 0.000000 -1.000000 0.000000
vn 0.000000 1.000000 0.000000
vn 0.000000 1.000000 0.000000
vn 0.000000 1.000000 0.000000
vn 0.000000 1.000000 0.000000
vn 0.000000 1.000000 0.000000
vn 0.000000 1.000000 0.000000
vn 0.000000 1.000000 0.000000
vn 0.000000 1.000000 0.000000
vn 0.000000 1.000000 0.000000
vn 0.928124 0.156434 -0.337809
vn 0.756613 0.156435 -0.634874
vn 0.756613 0.156435 -0.634874
vn 0.928124 0.156434 -0.337809
vn 0.493844 0.156435 -0.855363
vn 0.493844 0.156435 -0.855363
vn 0.171511 0.156435 -0.972683
vn 0.171511 0.156435 -0.972683
vn -0.171510 0.156434 -0.972683
vn -0.171510 0.156434 -0.972683
vn -0.493844 0.156434 -0.855363
vn -0.493844 0.156434 -0.855363
vn -0.756613 0.156434 -0.634874
vn -0.756613 0.156434 -0.634874
vn -0.928123 0.156434 -0.337810
vn -0.928123 0.156434 -0.337810
vn -0.987688 0.156434 -0.000000
vn -0.987688 0.156434 -0.000000
vn -0.928124 0.156435 0.337809
vn -0.928124 0.156435 0.337809
vn -0.756613 0.156434 0.634874
vn -0.756613 0.156435 0.634874
vn -0.493844 0.156434 0.855363
vn -0.493844 0.156434 0.855363
vn -0.171510 0.156434 0.972683
vn -0.171510 0.156434 0.972683
vn 0.171510 0.156434 0.972683
vn 0.171510 0.156434 0.972683
vn 0.493844 0.156435 0.855363
vn 0.493844 0.156435 0.855363
vn 0.756613 0.156434 0.634874
vn 0.756613 0.156434 0.634874
vn 0.928123 0.156434 0.337809
vn 0.928123 0.156434 0.337809
vn 0.987688 0.156435 0.000000
vn 0.987688 0.156435 0.000000
vn 0.837272 0.453990 -0.304742
vn 0.682551 0.453990 -0.572728
vn 0.682551 0.453991 -0.572728
vn 0.837272 0.453990 -0.304742
vn 0.445504 0.453991 -0.771634
vn 0.445504 0.453991 -0.771634
vn 0.154722 0.453990 -0.877470
vn 0.154722 0.453991 -0.877470
vn -0.154721 0.453991 -0.877470
vn -0.154721 0.453991 -0.877470
vn -0.445503 0.453991 -0.771634
vn -0.445503 0.453991 -0.771634
vn -0.682551 0.453991 -0.572728
vn -0.682550 0.453991 -0.572728
vn -0.837272 0.453991 -0.304742
vn -0.837272 0.453991 -0.304742
vn -0.891006 0.453991 -0.000000
vn -0.891006 0.453991 -0.000000
vn -0.837272 0.453990 0.304742
vn -0.837272 0.453990 0.304742
vn -0.682551 0.453991 0.572728
vn -0.682551 0.453991 0.572728
vn -0.445503 0.453990 0.771634
vn -0.445503 0.453990 0.771634
vn -0.154722 0.453990 0.877470
vn -0.154722 0.453990 0.877470
vn 0.154722 0.453991 0.877470
vn 0.154722 0.453991 0.877470
vn 0.445503 0.453990 0.771634
vn 0.445503 0.453990 0.771634
vn 0.682550 0.453990 0.572728
vn 0.682550 0.453990 0.572728
vn 0.837272 0.453991 0.304742
vn 0.837272 0.453990 0.304742
vn 0.891007 0.453990 0.000000
vn 0.891007 0.453990 0.000000
vn 0.664463 0.707107 -0.241844
vn 0.541675 0.707107 -0.454519
vn 0.541675 0.707107 -0.454519
vn 0.664463 0.707107 -0.241844
vn 0.353554 0.707107 -0.612372
vn 0.353554 0.707107 -0.612372
vn 0.122788 0.707107 -0.696364
vn 0.122788 0.707107 -0.696364
vn -0.122788 0.707107 -0.696364
vn -0.122788 0.707107 -0.696364
vn -0.353553 0.707107 -0.612373
vn -0.353553 0.707107 -0.612373
vn -0.541675 0.707107 -0.454520
vn -0.541675 0.707107 -0.454520
vn -0.664463 0.707107 -0.241845
vn -0.664463 0.707107 -0.241845
vn -0.707107 0.707107 -0.000000
vn -0.707107 0.707107 -0.000000
vn -0.664463 0.707107 0.241844
vn -0.664463 0.707107 0.241844
vn -0.541675 0.707107 0.454519
vn -0.541675 0.707107 0.454519
vn -0.353554 0.707107 0.612372
vn -0.353554 0.707107 0.612372
vn -0.122788 0.707107 0.696364
vn -0.122788 0.707107 0.696364
vn 0.122788 0.707107 0.696364
vn 0.122788 0.707107 0.696364
vn 0.353553 0.707107 0.612372
vn 0.353553 0.707107 0.612372
vn 0.541675 0.707107 0.454519
vn 0.541675 0.707107 0.454519
vn 0.664463 0.707107 0.241845
vn 0.664463 0.707107 0.241845
vn 0.707107 0.707107 0.000000
vn 0.707107 0.707107 0.000000
vn 0.426612 0.891007 -0.155274
vn 0.347777 0.891006 -0.291820
vn 0.347777 0.891006 -0.291820
vn 0.426612 0.891006 -0.155274
vn 0.226995 0.891006 -0.393168
vn 0.226995 0.891006 -0.393168
vn 0.078835 0.891006 -0.447094
vn 0.078835 0.891006 -0.447094
vn -0.078835 0.891007 -0.447093
vn -0.078835 0.891007 -0.447093
vn -0.226995 0.891007 -0.393167
vn -0.226995 0.891006 -0.393167
vn -0.347777 0.891007 -0.291820
vn -0.347777 0.891007 -0.291820
vn -0.426612 0.891007 -0.155274
vn -0.426612 0.891007 -0.155274
vn -0.453991 0.891006 0.000000
vn -0.453991 0.891006 0.000000
vn -0.426612 0.891007 0.155273
vn -0.426612 0.891007 0.155273
vn -0.347777 0.891007 0.291819
vn -0.347777 0.891007 0.291819
vn -0.226995 0.891006 0.393167
vn -0.226995 0.891006 0.393168
vn -0.078835 0.891007 0.447094
vn -0.078835 0.891006 0.447094
vn 0.078835 0.891007 0.447093
vn 0.078835 0.891007 0.447093
vn 0.226995 0.891007 0.393167
vn 0.226995 0.891007 0.393167
vn 0.347777 0.891006 0.291820
vn 0.347777 0.891006 0.291820
vn 0.426612 0.891007 0.155274
vn 0.426612 0.891006 0.155274
vn 0.453991 0.891006 -0.000000
vn 0.453991 0.891006 0.000000
vn 0.147000 0.987688 -0.053506
vn 0.119836 0.987688 -0.100555
vn -0.000000 1.000000 -0.000000
vn 0.078217 0.987688 -0.135476
vn 0.027165 0.987688 -0.154058
vn -0.027164 0.987688 -0.154059
vn -0.078217 0.987688 -0.135477
vn -0.119836 0.987688 -0.100554
vn -0.147000 0.987688 -0.053504
vn -0.156434 0.987688 0.000000
vn -0.147000 0.987688 0.053504
vn -0.119836 0.987688 0.100554
vn -0.078217 0.987688 0.135476
vn -0.027165 0.987688 0.154057
vn 0.027165 0.987688 0.154059
vn 0.078217 0.987688 0.135478
vn 0.119836 0.987688 0.100554
vn 0.147000 0.987688 0.053504
vn 0.156434 0.987688 -0.000000
s off
g pCube2
usemtl initialShadingGroup
f 1/139/1 2/2/2 4/3/3 3/142/4
f 3/4/5 4/3/6 6/5/7 5/141/8
f 5/6/9 6/5/10 8/7/11 7/137/12
f 7/8/13 8/7/14 2/2/15 1/140/16
f 2/2/17 8/7/18 6/5/19 4/3/20
f 7/138/21 1/1/22 3/4/23 5/141/24
f 9/130/25 10/134/26 18/128/27 17/124/28
f 10/134/29 11/133/30 19/127/31 18/128/32
f 11/133/33 12/132/34 20/126/35 19/127/36
f 12/132/37 13/135/38 21/136/39 20/126/40
f 13/17/41 14/19/42 22/20/43 21/18/44
f 14/19/45 15/131/46 23/125/47 22/20/48
f 15/131/49 16/129/50 24/123/51 23/125/52
f 16/129/53 9/130/54 17/124/55 24/123/56
s 1
f 10/10/57 9/9/58 25/25/59
f 11/13/60 10/10/57 25/25/59
f 12/15/61 11/13/60 25/25/59
f 13/17/62 12/15/61 25/25/59
f 14/19/63 13/17/62 25/25/59
f 15/21/64 14/19/63 25/25/59
f 16/23/65 15/21/64 25/25/59
f 9/9/58 16/23/65 25/25/59
s 2
f 17/12/66 18/11/67 26/26/68
f 18/11/67 19/14/69 26/26/68
f 19/14/69 20/16/70 26/26/68
f 20/16/70 21/18/71 26/26/68
f 21/18/71 22/20/72 26/26/68
f 22/20/72 23/22/73 26/26/68
f 23/22/73 24/24/74 26/26/68
f 24/24/74 17/12/66 26/26/68
s 3
f 27/27/75 28/28/76 46/29/77 45/30/78
f 28/28/76 29/31/79 47/32/80 46/29/77
f 29/31/79 30/33/81 48/34/82 47/32/80
f 30/33/81 31/35/83 49/36/84 48/34/82
f 31/35/83 32/37/85 50/38/86 49/36/84
f 32/37/85 33/39/87 51/40/88 50/38/86
f 33/39/87 34/41/89 52/42/90 51/40/88
f 34/41/89 35/43/91 53/44/92 52/42/90
f 35/43/91 36/45/93 54/121/94 53/44/92
f 36/122/93 37/47/95 55/48/96 54/46/94
f 37/47/95 38/49/97 56/50/98 55/48/96
f 38/49/97 39/51/99 57/52/100 56/50/98
f 39/51/99 40/53/101 58/54/102 57/52/100
f 40/53/101 41/55/103 59/56/104 58/54/102
f 41/55/103 42/57/105 60/58/106 59/56/104
f 42/57/105 43/59/107 61/60/108 60/58/106
f 43/59/107 44/61/109 62/62/110 61/60/108
f 44/61/109 27/27/75 45/30/78 62/62/110
s 4
f 45/30/111 46/29/112 64/63/113 63/64/114
f 46/29/112 47/32/115 65/65/116 64/63/113
f 47/32/115 48/34/117 66/66/118 65/65/116
f 48/34/117 49/36/119 67/67/120 66/66/118
f 49/36/119 50/38/121 68/68/122 67/67/120
f 50/38/121 51/40/123 69/69/124 68/68/122
f 51/40/123 52/42/125 70/70/126 69/69/124
f 52/42/125 53/44/127 71/71/128 70/70/126
f 53/44/127 54/121/129 72/120/130 71/71/128
f 54/46/129 55/48/131 73/73/132 72/72/130
f 55/48/131 56/50/133 74/74/134 73/73/132
f 56/50/133 57/52/135 75/75/136 74/74/134
f 57/52/135 58/54/137 76/76/138 75/75/136
f 58/54/137 59/56/139 77/77/140 76/76/138
f 59/56/139 60/58/141 78/78/142 77/77/140
f 60/58/141 61/60/143 79/79/144 78/78/142
f 61/60/143 62/62/145 80/80/146 79/79/144
f 62/62/145 45/30/111 63/64/114 80/80/146
s 5
f 63/64/147 64/63/148 82/81/149 81/82/150
f 64/63/148 65/65/151 83/83/152 82/81/149
f 65/65/151 66/66/153 84/84/154 83/83/152
f 66/66/153 67/67/155 85/85/156 84/84/154
f 67/67/155 68/68/157 86/86/158 85/85/156
f 68/68/157 69/69/159 87/87/160 86/86/158
f 69/69/159 70/70/161 88/88/162 87/87/160
f 70/70/161 71/71/163 89/89/164 88/88/162
f 71/71/163 72/120/165 90/119/166 89/89/164
f 72/72/165 73/73/167 91/91/168 90/90/166
f 73/73/167 74/74/169 92/92/170 91/91/168
f 74/74/169 75/75/171 93/93/172 92/92/170
f 75/75/171 76/76/173 94/94/174 93/93/172
f 76/76/173 77/77/175 95/95/176 94/94/174
f 77/77/175 78/78/177 96/96/178 95/95/176
f 78/78/177 79/79/179 97/97/180 96/96/178
f 79/79/179 80/80/181 98/98/182 97/97/180
f 80/80/181 63/64/147 81/82/150 98/98/182
s 6
f 81/82/183 82/81/184 100/99/185 99/100/186
f 82/81/184 83/83/187 101/101/188 100/99/185
f 83/83/187 84/84/189 102/102/190 101/101/188
f 84/84/189 85/85/191 103/103/192 102/102/190
f 85/85/191 86/86/193 104/104/194 103/103/192
f 86/86/193 87/87/195 105/105/196 104/104/194
f 87/87/195 88/88/197 106/106/198 105/105/196
f 88/88/197 89/89/199 107/107/200 106/106/198
f 89/89/199 90/119/201 108/118/202 107/107/200
f 90/90/201 91/91/203 109/109/204 108/108/202
f 91/91/203 92/92/205 110/110/206 109/109/204
f 92/92/205 93/93/207 111/111/208 110/110/206
f 93/93/207 94/94/209 112/112/210 111/111/208
f 94/94/209 95/95/211 113/113/212 112/112/210
f 95/95/211 96/96/213 114/114/214 113/113/212
f 96/96/213 97/97/215 115/115/216 114/114/214
f 97/97/215 98/98/217 116/116/218 115/115/216
f 98/98/217 81/82/183 99/100/186 116/116/218
s 7
f 99/100/219 100/99/220 117/117/221
f 100/99/220 101/101/222 117/117/221
f 101/101/222 102/102/223 117/117/221
f 102/102/223 103/103/224 117/117/221
f 103/103/224 104/104/225 117/117/221
f 104/104/225 105/105/226 117/117/221
f 105/105/226 106/106/227 117/117/221
f 106/106/227 107/107/228 117/117/221
f 107/107/228 108/118/229 117/117/221
f 108/108/229 109/109/230 117/117/221
f 109/109/230 110/110/231 117/117/221
f 110/110/231 111/111/232 117/117/221
f 111/111/232 112/112/233 117/117/221
f 112/112/233 113/113/234 117/117/221
f 113/113/234 114/114/235 117/117/221
f 114/114/235 115/115/236 117/117/221
f 115/115/236 116/116/237 117/117/221
f 116/116/237 99/100/219 117/117/221
